<?xml version="1.0" encoding="iso-8859-1"?>
<!-- Generator: Adobe Illustrator 19.0.0, SVG Export Plug-In . SVG Version: 6.00 Build 0)  -->
<svg version="1.1" id="Capa_1" xmlns="http://www.w3.org/2000/svg" xmlns:xlink="http://www.w3.org/1999/xlink" x="0px" y="0px"
	 viewBox="0 0 512 512" style="enable-background:new 0 0 512 512;" xml:space="preserve">
<circle style="fill:#3D7ED9;" cx="256" cy="256" r="256"/>
<path style="fill:#466EB2;" d="M124.51,355.667l155.228,155.228c123.665-11.373,221.867-110.684,231.484-234.849L312.177,77
	L124.51,355.667z"/>
<path style="fill:#EDC472;" d="M240.539,134.697L176,317.534l24.642,157.301l7.208,32.624C223.447,510.427,239.539,512,256,512
	c23.756,0,46.75-3.25,68.578-9.304l-10.263-30.528l56.116-178.571C376.88,273.075,373.826,256,355.853,238L240.539,134.697z"/>
<path style="fill:#E8BA64;" d="M355.853,238l-100.282-89.836v363.831c0.143,0,0.285,0.005,0.429,0.005
	c23.756,0,46.75-3.25,68.578-9.304l-10.263-30.528l56.116-178.571C376.881,273.074,373.827,256,355.853,238z"/>
<rect x="124.51" y="77" style="fill:#F05E3A;" width="187.67" height="278.67"/>
<rect x="212.71" y="77" style="fill:#DE4726;" width="99.46" height="278.67"/>
<path style="fill:#EDC472;" d="M280.4,397.335l-52.642,2.412l-8.131-165.986c-0.666-14.537,10.579-26.861,25.116-27.527l0,0
	c14.537-0.666,26.861,10.578,27.526,25.115L280.4,397.335z"/>
<path style="fill:#E8BA64;" d="M272.27,231.35c-0.491-10.716-7.32-19.637-16.698-23.322v190.445l24.829-1.138L272.27,231.35z"/>
<g>
</g>
<g>
</g>
<g>
</g>
<g>
</g>
<g>
</g>
<g>
</g>
<g>
</g>
<g>
</g>
<g>
</g>
<g>
</g>
<g>
</g>
<g>
</g>
<g>
</g>
<g>
</g>
<g>
</g>
</svg>
