<?xml version="1.0" encoding="iso-8859-1"?>
<!-- Generator: Adobe Illustrator 19.0.0, SVG Export Plug-In . SVG Version: 6.00 Build 0)  -->
<svg version="1.1" id="Capa_1" xmlns="http://www.w3.org/2000/svg" xmlns:xlink="http://www.w3.org/1999/xlink" x="0px" y="0px"
	 viewBox="0 0 512 512" style="enable-background:new 0 0 512 512;" xml:space="preserve">
<circle style="fill:#64E1DC;" cx="256" cy="256" r="256"/>
<path style="fill:#00C8C8;" d="M290.226,509.716C415.426,492.986,512,385.778,512,256c0-8.489-0.424-16.879-1.231-25.156
	l-75.177-75.177l-48.956,83.978l-83.978-83.978l-47.447,85.487l-85.487-85.487L62.333,281.824L290.226,509.716z"/>
<g>
	<rect x="106.41" y="256" style="fill:#414952;" width="33.31" height="105.83"/>
	<rect x="239.34" y="256" style="fill:#414952;" width="33.31" height="105.83"/>
</g>
<g>
	<rect x="255.57" y="256" style="fill:#333940;" width="17.09" height="105.83"/>
	<rect x="372.28" y="256" style="fill:#333940;" width="33.31" height="105.83"/>
</g>
<rect x="76.41" y="155.67" style="fill:#414952;" width="93.31" height="105.83"/>
<rect x="62.33" y="241.16" style="fill:#636978;" width="121.47" height="40.662"/>
<rect x="209.34" y="155.67" style="fill:#414952;" width="93.31" height="105.83"/>
<rect x="255.57" y="155.67" style="fill:#333940;" width="47.09" height="105.83"/>
<rect x="195.27" y="241.16" style="fill:#636978;" width="121.47" height="40.662"/>
<rect x="255.57" y="241.16" style="fill:#555A66;" width="61.16" height="40.662"/>
<rect x="342.28" y="155.67" style="fill:#333940;" width="93.31" height="105.83"/>
<rect x="328.2" y="241.16" style="fill:#555A66;" width="121.47" height="40.662"/>
<path style="fill:#86C42B;" d="M13.092,337C46.984,438.684,142.925,512,256,512s209.016-73.316,242.908-175H13.092z"/>
<path style="fill:#78B22A;" d="M255.571,337v174.996c0.143,0,0.286,0.004,0.429,0.004c113.075,0,209.016-73.316,242.908-175H255.571
	z"/>
<g>
</g>
<g>
</g>
<g>
</g>
<g>
</g>
<g>
</g>
<g>
</g>
<g>
</g>
<g>
</g>
<g>
</g>
<g>
</g>
<g>
</g>
<g>
</g>
<g>
</g>
<g>
</g>
<g>
</g>
</svg>
