<svg id="Capa_1" enable-background="new 0 0 512 512" height="512" viewBox="0 0 512 512" width="512" xmlns="http://www.w3.org/2000/svg"><path d="m437.02 74.98c-48.353-48.351-112.64-74.98-181.02-74.98s-132.667 26.629-181.02 74.98c-48.351 48.353-74.98 112.64-74.98 181.02s26.629 132.667 74.98 181.02c48.353 48.351 112.64 74.98 181.02 74.98s132.667-26.629 181.02-74.98c48.351-48.353 74.98-112.64 74.98-181.02s-26.629-132.667-74.98-181.02z" fill="#85d7ed"/><path d="m437.02 74.98c-48.353-48.351-112.64-74.98-181.02-74.98v512c68.38 0 132.667-26.629 181.02-74.98 48.351-48.353 74.98-112.64 74.98-181.02s-26.629-132.667-74.98-181.02z" fill="#48b6d4"/><path d="m256 65.607c-104.983 0-190.393 85.41-190.393 190.393s85.41 190.393 190.393 190.393 190.393-85.41 190.393-190.393-85.41-190.393-190.393-190.393z" fill="#f2f4f7"/><path d="m256 65.607v380.785c104.983 0 190.393-85.41 190.393-190.393s-85.41-190.392-190.393-190.392z" fill="#c7e7ff"/><path d="m288.121 223.879v-49.242c0-8.284-6.716-15-15-15h-34.242c-8.284 0-15 6.716-15 15v49.242h-49.242c-8.284 0-15 6.716-15 15v34.242c0 8.284 6.716 15 15 15h49.242v49.242c0 8.284 6.716 15 15 15h34.242c8.284 0 15-6.716 15-15v-49.242h49.242c8.284 0 15-6.716 15-15v-34.242c0-8.284-6.716-15-15-15z" fill="#ff5b6e"/><path d="m337.363 223.879h-49.242v-49.242c0-8.284-6.716-15-15-15h-17.121v192.726h17.121c8.284 0 15-6.716 15-15v-49.242h49.242c8.284 0 15-6.716 15-15v-34.242c0-8.284-6.716-15-15-15z" fill="#db2e43"/></svg>